<?xml version="1.0" standalone="no"?>
<!DOCTYPE svg PUBLIC "-//W3C//DTD SVG 20010904//EN"
 "http://www.w3.org/TR/2001/REC-SVG-20010904/DTD/svg10.dtd">
<svg version="1.0" xmlns="http://www.w3.org/2000/svg"
 width="763.000000pt" height="509.000000pt" viewBox="0 0 763.000000 509.000000"
 preserveAspectRatio="xMidYMid meet">
<metadata>
Created by potrace 1.16, written by Peter Selinger 2001-2019
</metadata>
<g transform="translate(0.000000,509.000000) scale(0.100000,-0.100000)"
fill="#000000" stroke="none">
<path d="M0 2545 l0 -2545 3815 0 3815 0 0 100 0 100 -2120 0 -2120 0 0 766 0
765 38 -3 37 -3 3 -723 2 -722 2045 0 2045 0 0 2045 0 2045 -2045 0 -2045 0
-2 -722 -3 -723 -38 -3 -37 -3 2 768 3 768 2118 3 2117 2 0 315 0 315 -3815 0
-3815 0 0 -2545z m3373 208 c24 -22 22 -72 -5 -100 -59 -63 -158 12 -117 88
21 40 83 46 122 12z m327 -343 c0 -375 4 -405 50 -430 12 -6 40 -10 63 -8 l42
3 0 -45 c0 -42 -1 -44 -35 -52 -46 -10 -132 8 -165 34 -14 11 -34 37 -45 59
-19 36 -20 60 -20 414 l0 375 55 0 55 0 0 -350z m1127 270 c74 -36 124 -91
155 -169 22 -53 23 -69 23 -341 l0 -285 -57 -3 -58 -3 0 116 0 115 -237 -2
-238 -3 -3 -112 -3 -113 -55 0 -55 0 3 298 c3 297 3 297 29 352 32 66 86 122
148 152 64 31 104 38 201 33 69 -4 96 -10 147 -35z m-4382 -20 l0 -45 -78 -3
-77 -3 2 -312 3 -312 73 0 c80 0 88 -7 80 -71 l-3 -29 -217 -3 -218 -2 0 50 0
50 65 1 c36 1 71 2 78 3 9 1 12 70 12 311 l0 310 -77 3 -78 3 0 50 0 49 218
-2 217 -3 0 -45z m4925 -130 l0 -180 235 0 235 0 2 178 3 177 58 3 57 3 0
-416 0 -416 -57 3 -58 3 -3 183 -2 182 -235 0 -235 0 -2 -182 -3 -183 -57 -3
-58 -3 0 416 0 415 60 0 60 0 0 -180z m-4424 -35 c27 -8 58 -20 68 -28 18 -13
18 -15 -3 -55 -12 -23 -23 -42 -25 -42 -2 0 -25 10 -52 22 -98 44 -255 23
-270 -36 -16 -64 18 -90 162 -120 145 -31 170 -43 207 -96 25 -36 23 -123 -4
-166 -46 -76 -173 -113 -314 -93 -85 11 -185 50 -185 71 0 7 9 28 20 46 16 25
25 32 38 26 9 -4 42 -16 72 -27 154 -54 299 -14 276 77 -8 34 -49 52 -164 72
-110 20 -155 38 -192 80 -27 31 -30 42 -30 98 0 85 33 130 124 168 53 22 203
24 272 3z m354 -25 c0 -22 3 -40 6 -40 3 0 20 11 38 25 53 41 100 55 178 55
85 0 143 -22 188 -71 l29 -32 36 31 c60 54 93 65 190 70 83 3 94 1 145 -25 67
-34 106 -87 120 -164 6 -31 9 -141 8 -245 l-3 -189 -55 0 -55 0 -5 215 c-5
225 -7 235 -55 280 -24 22 -35 25 -103 25 -93 0 -133 -23 -166 -94 -18 -41
-21 -69 -24 -239 l-4 -193 -51 3 -52 3 -5 210 c-4 188 -7 214 -25 245 -26 44
-77 70 -138 70 -88 0 -154 -48 -177 -128 -5 -20 -10 -119 -10 -219 l0 -183
-55 0 -55 0 0 315 0 315 50 0 50 0 0 -40z m1535 16 c28 -12 56 -30 64 -39 22
-27 31 -20 31 23 l0 40 55 0 55 0 0 -316 0 -315 -52 3 -53 3 -5 43 -5 44 -23
-25 c-67 -71 -220 -92 -322 -45 -79 36 -115 70 -152 145 -28 58 -32 75 -32
147 1 150 71 255 203 302 61 22 178 17 236 -10z m535 -291 l0 -315 -55 0 -55
0 0 315 0 315 55 0 55 0 0 -315z"/>
<path d="M4536 2590 c-54 -27 -71 -45 -97 -98 -19 -40 -23 -64 -23 -162 l-1
-115 235 0 235 0 -1 120 c0 102 -3 126 -21 160 -44 83 -104 115 -215 115 -52
-1 -84 -6 -112 -20z"/>
<path d="M2615 2387 c-62 -35 -98 -95 -103 -171 -5 -83 11 -129 63 -181 97
-97 253 -77 326 42 20 32 24 52 24 120 0 74 -3 85 -30 125 -44 62 -95 88 -175
88 -49 0 -75 -6 -105 -23z"/>
</g>
</svg>
